<svg width="12" height="9" viewBox="0 0 12 9" fill="none" xmlns="http://www.w3.org/2000/svg">
<path d="M12 1.25V8.75H0.75V7.25H0V0.5H10.5V1.25H12ZM9 1.25C9 1.35547 9.01953 1.45312 9.05859 1.54297C9.09766 1.63281 9.15039 1.71094 9.2168 1.77734C9.2832 1.84375 9.36328 1.89844 9.45703 1.94141C9.55078 1.98438 9.64844 2.00391 9.75 2V1.25H9ZM0.75 2C0.855469 2 0.953125 1.98047 1.04297 1.94141C1.13281 1.90234 1.21094 1.84961 1.27734 1.7832C1.34375 1.7168 1.39844 1.63672 1.44141 1.54297C1.48438 1.44922 1.50391 1.35156 1.5 1.25H0.75V2ZM0.75 5C0.957031 5 1.15039 5.03906 1.33008 5.11719C1.50977 5.19531 1.66992 5.30273 1.81055 5.43945C1.95117 5.57617 2.05859 5.73438 2.13281 5.91406C2.20703 6.09375 2.24609 6.28906 2.25 6.5H8.25C8.25 6.29297 8.28906 6.09961 8.36719 5.91992C8.44531 5.74023 8.55273 5.58008 8.68945 5.43945C8.82617 5.29883 8.98438 5.19141 9.16406 5.11719C9.34375 5.04297 9.53906 5.00391 9.75 5V2.75C9.54297 2.75 9.34961 2.71094 9.16992 2.63281C8.99023 2.55469 8.83008 2.44727 8.68945 2.31055C8.54883 2.17383 8.44141 2.01562 8.36719 1.83594C8.29297 1.65625 8.25391 1.46094 8.25 1.25H2.25C2.25 1.45703 2.21094 1.65039 2.13281 1.83008C2.05469 2.00977 1.94727 2.16992 1.81055 2.31055C1.67383 2.45117 1.51562 2.55859 1.33594 2.63281C1.15625 2.70703 0.960938 2.74609 0.75 2.75V5ZM9.75 5.75C9.64453 5.75 9.54688 5.76953 9.45703 5.80859C9.36719 5.84766 9.28906 5.90039 9.22266 5.9668C9.15625 6.0332 9.10156 6.11328 9.05859 6.20703C9.01562 6.30078 8.99609 6.39844 9 6.5H9.75V5.75ZM0.75 6.5H1.5C1.5 6.39453 1.48047 6.29688 1.44141 6.20703C1.40234 6.11719 1.34961 6.03906 1.2832 5.97266C1.2168 5.90625 1.13672 5.85156 1.04297 5.80859C0.949219 5.76562 0.851562 5.74609 0.75 5.75V6.5ZM11.25 2H10.5V7.25H1.5V8H11.25V2ZM2.625 4.25C2.52344 4.25 2.43555 4.21289 2.36133 4.13867C2.28711 4.06445 2.25 3.97656 2.25 3.875C2.25 3.77344 2.28711 3.68555 2.36133 3.61133C2.43555 3.53711 2.52344 3.5 2.625 3.5C2.72656 3.5 2.81445 3.53711 2.88867 3.61133C2.96289 3.68555 3 3.77344 3 3.875C3 3.97656 2.96289 4.06445 2.88867 4.13867C2.81445 4.21289 2.72656 4.25 2.625 4.25ZM7.875 4.25C7.77344 4.25 7.68555 4.21289 7.61133 4.13867C7.53711 4.06445 7.5 3.97656 7.5 3.875C7.5 3.77344 7.53711 3.68555 7.61133 3.61133C7.68555 3.53711 7.77344 3.5 7.875 3.5C7.97656 3.5 8.06445 3.53711 8.13867 3.61133C8.21289 3.68555 8.25 3.77344 8.25 3.875C8.25 3.97656 8.21289 4.06445 8.13867 4.13867C8.06445 4.21289 7.97656 4.25 7.875 4.25ZM5.25 5.75C5.04297 5.75 4.84961 5.71094 4.66992 5.63281C4.49023 5.55469 4.33008 5.44727 4.18945 5.31055C4.04883 5.17383 3.94141 5.01562 3.86719 4.83594C3.79297 4.65625 3.75391 4.46094 3.75 4.25V3.5C3.75 3.29297 3.78906 3.09961 3.86719 2.91992C3.94531 2.74023 4.05273 2.58008 4.18945 2.43945C4.32617 2.29883 4.48438 2.19141 4.66406 2.11719C4.84375 2.04297 5.03906 2.00391 5.25 2C5.45703 2 5.65039 2.03906 5.83008 2.11719C6.00977 2.19531 6.16992 2.30273 6.31055 2.43945C6.45117 2.57617 6.55859 2.73438 6.63281 2.91406C6.70703 3.09375 6.74609 3.28906 6.75 3.5V4.25C6.75 4.45703 6.71094 4.65039 6.63281 4.83008C6.55469 5.00977 6.44727 5.16992 6.31055 5.31055C6.17383 5.45117 6.01562 5.55859 5.83594 5.63281C5.65625 5.70703 5.46094 5.74609 5.25 5.75ZM4.5 4.25C4.5 4.35547 4.51953 4.45312 4.55859 4.54297C4.59766 4.63281 4.65039 4.71094 4.7168 4.77734C4.7832 4.84375 4.86328 4.89844 4.95703 4.94141C5.05078 4.98438 5.14844 5.00391 5.25 5C5.35547 5 5.45312 4.98047 5.54297 4.94141C5.63281 4.90234 5.71094 4.84961 5.77734 4.7832C5.84375 4.7168 5.89844 4.63672 5.94141 4.54297C5.98438 4.44922 6.00391 4.35156 6 4.25V3.5C6 3.39453 5.98047 3.29688 5.94141 3.20703C5.90234 3.11719 5.84961 3.03906 5.7832 2.97266C5.7168 2.90625 5.63672 2.85156 5.54297 2.80859C5.44922 2.76562 5.35156 2.74609 5.25 2.75C5.14453 2.75 5.04688 2.76953 4.95703 2.80859C4.86719 2.84766 4.78906 2.90039 4.72266 2.9668C4.65625 3.0332 4.60156 3.11328 4.55859 3.20703C4.51562 3.30078 4.49609 3.39844 4.5 3.5V4.25Z" fill="#C9C9C9"/>
</svg>
